<svg width="790" height="125" viewBox="0 0 790 125" fill="none" xmlns="http://www.w3.org/2000/svg">
<path d="M495.717 108.083H493.68V92.3755H488.132V90.5663H501.264V92.3755H495.717V108.083ZM511.688 108.083L511.293 106.214H511.197C510.542 107.037 509.887 107.596 509.232 107.892C508.585 108.179 507.774 108.323 506.8 108.323C505.498 108.323 504.475 107.987 503.732 107.316C502.997 106.646 502.63 105.691 502.63 104.453C502.63 101.801 504.751 100.411 508.992 100.283L511.221 100.211V99.3967C511.221 98.3663 510.997 97.6074 510.55 97.1202C510.111 96.6249 509.404 96.3773 508.429 96.3773C507.335 96.3773 506.097 96.7128 504.715 97.3838L504.104 95.8621C504.751 95.5107 505.458 95.2351 506.224 95.0354C506.999 94.8357 507.774 94.7358 508.549 94.7358C510.115 94.7358 511.273 95.0833 512.024 95.7782C512.782 96.4732 513.162 97.5875 513.162 99.1211V108.083H511.688ZM507.195 106.681C508.433 106.681 509.404 106.342 510.107 105.663C510.817 104.984 511.173 104.034 511.173 102.811V101.625L509.184 101.709C507.602 101.765 506.46 102.013 505.757 102.452C505.062 102.883 504.715 103.558 504.715 104.477C504.715 105.196 504.93 105.743 505.362 106.118C505.801 106.494 506.412 106.681 507.195 106.681ZM519.26 108.083H517.271V89.44H519.26V108.083ZM529.025 108.323C527.084 108.323 525.551 107.732 524.424 106.55C523.306 105.367 522.747 103.726 522.747 101.625C522.747 99.5085 523.266 97.8271 524.305 96.581C525.351 95.3349 526.753 94.7119 528.51 94.7119C530.156 94.7119 531.458 95.255 532.416 96.3414C533.375 97.4197 533.854 98.8455 533.854 100.619V101.877H524.808C524.848 103.418 525.235 104.589 525.97 105.387C526.713 106.186 527.755 106.586 529.097 106.586C530.511 106.586 531.909 106.29 533.291 105.699V107.472C532.588 107.776 531.921 107.991 531.29 108.119C530.667 108.255 529.912 108.323 529.025 108.323ZM528.486 96.3773C527.432 96.3773 526.589 96.7208 525.958 97.4077C525.335 98.0947 524.968 99.0452 524.856 100.259H531.721C531.721 99.0053 531.442 98.0467 530.883 97.3838C530.323 96.7128 529.525 96.3773 528.486 96.3773ZM546.243 108.083V99.5884C546.243 98.518 545.999 97.7193 545.512 97.1921C545.025 96.6649 544.262 96.4013 543.224 96.4013C541.85 96.4013 540.843 96.7727 540.204 97.5156C539.565 98.2584 539.246 99.4845 539.246 101.194V108.083H537.257V94.9515H538.874L539.198 96.7487H539.294C539.701 96.1017 540.272 95.6025 541.007 95.251C541.742 94.8916 542.561 94.7119 543.463 94.7119C545.045 94.7119 546.235 95.0953 547.034 95.8621C547.832 96.6209 548.232 97.8391 548.232 99.5165V108.083H546.243ZM556.571 106.681C556.923 106.681 557.262 106.658 557.589 106.61C557.917 106.554 558.177 106.498 558.368 106.442V107.963C558.153 108.067 557.833 108.151 557.41 108.215C556.994 108.287 556.619 108.323 556.283 108.323C553.743 108.323 552.473 106.985 552.473 104.309V96.4971H550.592V95.5386L552.473 94.7119L553.312 91.9082H554.462V94.9515H558.272V96.4971H554.462V104.225C554.462 105.016 554.65 105.623 555.025 106.046C555.401 106.47 555.916 106.681 556.571 106.681ZM578.689 108.083L576.508 102.512H569.487L567.33 108.083H565.27L572.195 90.4944H573.908L580.798 108.083H578.689ZM575.873 100.679L573.836 95.251C573.573 94.5641 573.301 93.7214 573.022 92.7229C572.846 93.4898 572.594 94.3325 572.267 95.251L570.206 100.679H575.873ZM588.154 108.323C586.253 108.323 584.78 107.74 583.733 106.574C582.695 105.399 582.176 103.742 582.176 101.601C582.176 99.4047 582.703 97.7073 583.757 96.5091C584.82 95.311 586.329 94.7119 588.286 94.7119C588.917 94.7119 589.548 94.7798 590.179 94.9156C590.81 95.0514 591.306 95.2111 591.665 95.3948L591.054 97.0842C590.615 96.9085 590.135 96.7647 589.616 96.6529C589.097 96.5331 588.638 96.4732 588.238 96.4732C585.57 96.4732 584.237 98.1746 584.237 101.577C584.237 103.191 584.56 104.429 585.207 105.292C585.862 106.154 586.829 106.586 588.107 106.586C589.201 106.586 590.323 106.35 591.473 105.879V107.64C590.595 108.095 589.488 108.323 588.154 108.323ZM599.561 106.658C600.887 106.658 601.853 106.302 602.46 105.591C603.068 104.88 603.391 103.682 603.431 101.997V101.553C603.431 99.7162 603.119 98.3942 602.496 97.5875C601.873 96.7807 600.887 96.3773 599.537 96.3773C598.371 96.3773 597.476 96.8326 596.853 97.7432C596.238 98.6458 595.931 99.9239 595.931 101.577C595.931 103.231 596.234 104.493 596.841 105.363C597.456 106.226 598.363 106.658 599.561 106.658ZM599.261 108.323C597.568 108.323 596.246 107.728 595.295 106.538C594.345 105.348 593.87 103.686 593.87 101.553C593.87 99.4047 594.349 97.7272 595.307 96.5211C596.266 95.315 597.6 94.7119 599.309 94.7119C601.107 94.7119 602.488 95.3908 603.455 96.7487H603.563L603.85 94.9515H605.42V113.978H603.431V108.359C603.431 107.56 603.475 106.881 603.563 106.322H603.407C602.488 107.656 601.107 108.323 599.261 108.323ZM611.519 94.9515V103.47C611.519 104.541 611.762 105.34 612.249 105.867C612.737 106.394 613.499 106.658 614.538 106.658C615.912 106.658 616.914 106.282 617.545 105.531C618.184 104.78 618.504 103.554 618.504 101.853V94.9515H620.493V108.083H618.851L618.564 106.322H618.456C618.048 106.969 617.481 107.464 616.754 107.808C616.036 108.151 615.213 108.323 614.286 108.323C612.689 108.323 611.491 107.944 610.692 107.185C609.901 106.426 609.506 105.212 609.506 103.542V94.9515H611.519ZM626.711 108.083H624.722V94.9515H626.711V108.083ZM624.554 91.393C624.554 90.9377 624.666 90.6062 624.89 90.3985C625.114 90.1828 625.393 90.075 625.729 90.075C626.048 90.075 626.324 90.1828 626.555 90.3985C626.787 90.6142 626.903 90.9457 626.903 91.393C626.903 91.8403 626.787 92.1758 626.555 92.3994C626.324 92.6151 626.048 92.7229 625.729 92.7229C625.393 92.7229 625.114 92.6151 624.89 92.3994C624.666 92.1758 624.554 91.8403 624.554 91.393ZM639.4 104.501C639.4 105.723 638.944 106.665 638.034 107.328C637.123 107.991 635.845 108.323 634.2 108.323C632.458 108.323 631.1 108.047 630.126 107.496V105.651C630.757 105.971 631.432 106.222 632.151 106.406C632.878 106.59 633.577 106.681 634.248 106.681C635.286 106.681 636.085 106.518 636.644 106.19C637.203 105.855 637.483 105.348 637.483 104.669C637.483 104.157 637.259 103.722 636.812 103.363C636.372 102.995 635.51 102.564 634.224 102.069C633.001 101.613 632.131 101.218 631.612 100.882C631.1 100.539 630.717 100.152 630.461 99.7202C630.214 99.2888 630.09 98.7736 630.09 98.1746C630.09 97.1042 630.525 96.2615 631.396 95.6464C632.267 95.0234 633.461 94.7119 634.978 94.7119C636.392 94.7119 637.774 94.9994 639.124 95.5746L638.417 97.1921C637.099 96.6489 635.905 96.3773 634.835 96.3773C633.892 96.3773 633.181 96.5251 632.702 96.8206C632.223 97.1162 631.983 97.5236 631.983 98.0428C631.983 98.3942 632.071 98.6938 632.247 98.9414C632.43 99.189 632.722 99.4246 633.121 99.6483C633.521 99.8719 634.288 100.195 635.422 100.619C636.979 101.186 638.03 101.757 638.573 102.332C639.124 102.907 639.4 103.63 639.4 104.501ZM644.636 108.083H642.647V94.9515H644.636V108.083ZM642.479 91.393C642.479 90.9377 642.591 90.6062 642.814 90.3985C643.038 90.1828 643.318 90.075 643.653 90.075C643.973 90.075 644.248 90.1828 644.48 90.3985C644.711 90.6142 644.827 90.9457 644.827 91.393C644.827 91.8403 644.711 92.1758 644.48 92.3994C644.248 92.6151 643.973 92.7229 643.653 92.7229C643.318 92.7229 643.038 92.6151 642.814 92.3994C642.591 92.1758 642.479 91.8403 642.479 91.393ZM653.095 106.681C653.446 106.681 653.786 106.658 654.113 106.61C654.441 106.554 654.7 106.498 654.892 106.442V107.963C654.676 108.067 654.357 108.151 653.933 108.215C653.518 108.287 653.143 108.323 652.807 108.323C650.267 108.323 648.997 106.985 648.997 104.309V96.4971H647.116V95.5386L648.997 94.7119L649.836 91.9082H650.986V94.9515H654.796V96.4971H650.986V104.225C650.986 105.016 651.174 105.623 651.549 106.046C651.924 106.47 652.44 106.681 653.095 106.681ZM659.517 108.083H657.528V94.9515H659.517V108.083ZM657.36 91.393C657.36 90.9377 657.472 90.6062 657.696 90.3985C657.919 90.1828 658.199 90.075 658.534 90.075C658.854 90.075 659.129 90.1828 659.361 90.3985C659.593 90.6142 659.708 90.9457 659.708 91.393C659.708 91.8403 659.593 92.1758 659.361 92.3994C659.129 92.6151 658.854 92.7229 658.534 92.7229C658.199 92.7229 657.919 92.6151 657.696 92.3994C657.472 92.1758 657.36 91.8403 657.36 91.393ZM675.069 101.505C675.069 103.646 674.53 105.32 673.451 106.526C672.373 107.724 670.883 108.323 668.982 108.323C667.808 108.323 666.766 108.047 665.855 107.496C664.944 106.945 664.241 106.154 663.746 105.124C663.251 104.093 663.003 102.887 663.003 101.505C663.003 99.3647 663.539 97.6993 664.609 96.5091C665.679 95.311 667.165 94.7119 669.066 94.7119C670.903 94.7119 672.361 95.3229 673.439 96.5451C674.526 97.7672 675.069 99.4206 675.069 101.505ZM665.064 101.505C665.064 103.183 665.4 104.461 666.071 105.34C666.742 106.218 667.728 106.658 669.03 106.658C670.332 106.658 671.319 106.222 671.99 105.352C672.668 104.473 673.008 103.191 673.008 101.505C673.008 99.836 672.668 98.5699 671.99 97.7073C671.319 96.8366 670.324 96.4013 669.006 96.4013C667.704 96.4013 666.722 96.8286 666.059 97.6833C665.396 98.538 665.064 99.812 665.064 101.505ZM687.554 108.083V99.5884C687.554 98.518 687.31 97.7193 686.823 97.1921C686.335 96.6649 685.573 96.4013 684.534 96.4013C683.16 96.4013 682.154 96.7727 681.515 97.5156C680.876 98.2584 680.556 99.4845 680.556 101.194V108.083H678.567V94.9515H680.185L680.508 96.7487H680.604C681.012 96.1017 681.583 95.6025 682.318 95.251C683.053 94.8916 683.871 94.7119 684.774 94.7119C686.355 94.7119 687.546 95.0953 688.344 95.8621C689.143 96.6209 689.543 97.8391 689.543 99.5165V108.083H687.554ZM711.421 95.6704C711.421 97.4437 710.814 98.8096 709.6 99.7681C708.394 100.719 706.664 101.194 704.412 101.194H702.351V108.083H700.314V90.5663H704.855C709.232 90.5663 711.421 92.2676 711.421 95.6704ZM702.351 99.4446H704.184C705.989 99.4446 707.295 99.153 708.102 98.5699C708.909 97.9868 709.312 97.0523 709.312 95.7663C709.312 94.608 708.933 93.7454 708.174 93.1782C707.415 92.6111 706.233 92.3275 704.627 92.3275H702.351V99.4446ZM722.875 108.083L722.48 106.214H722.384C721.729 107.037 721.074 107.596 720.419 107.892C719.772 108.179 718.961 108.323 717.987 108.323C716.685 108.323 715.662 107.987 714.92 107.316C714.185 106.646 713.817 105.691 713.817 104.453C713.817 101.801 715.938 100.411 720.179 100.283L722.408 100.211V99.3967C722.408 98.3663 722.184 97.6074 721.737 97.1202C721.298 96.6249 720.591 96.3773 719.616 96.3773C718.522 96.3773 717.284 96.7128 715.902 97.3838L715.291 95.8621C715.938 95.5107 716.645 95.2351 717.412 95.0354C718.186 94.8357 718.961 94.7358 719.736 94.7358C721.302 94.7358 722.46 95.0833 723.211 95.7782C723.97 96.4732 724.349 97.5875 724.349 99.1211V108.083H722.875ZM718.382 106.681C719.62 106.681 720.591 106.342 721.294 105.663C722.005 104.984 722.36 104.034 722.36 102.811V101.625L720.371 101.709C718.79 101.765 717.647 102.013 716.944 102.452C716.249 102.883 715.902 103.558 715.902 104.477C715.902 105.196 716.118 105.743 716.549 106.118C716.988 106.494 717.599 106.681 718.382 106.681ZM734.449 94.7119C735.033 94.7119 735.556 94.7598 736.019 94.8557L735.743 96.7008C735.2 96.581 734.721 96.5211 734.306 96.5211C733.243 96.5211 732.333 96.9524 731.574 97.8151C730.823 98.6778 730.448 99.7521 730.448 101.038V108.083H728.459V94.9515H730.1L730.328 97.3838H730.424C730.911 96.5291 731.498 95.8701 732.185 95.4068C732.872 94.9435 733.627 94.7119 734.449 94.7119ZM742.717 106.681C743.068 106.681 743.408 106.658 743.735 106.61C744.063 106.554 744.322 106.498 744.514 106.442V107.963C744.298 108.067 743.979 108.151 743.555 108.215C743.14 108.287 742.765 108.323 742.429 108.323C739.889 108.323 738.619 106.985 738.619 104.309V96.4971H736.738V95.5386L738.619 94.7119L739.458 91.9082H740.608V94.9515H744.418V96.4971H740.608V104.225C740.608 105.016 740.796 105.623 741.171 106.046C741.547 106.47 742.062 106.681 742.717 106.681ZM756.136 108.083V99.5884C756.136 98.518 755.892 97.7193 755.405 97.1921C754.918 96.6649 754.155 96.4013 753.117 96.4013C751.743 96.4013 750.736 96.7727 750.097 97.5156C749.458 98.2584 749.139 99.4845 749.139 101.194V108.083H747.15V94.9515H748.767L749.091 96.7487H749.187C749.594 96.1017 750.165 95.6025 750.9 95.251C751.635 94.8916 752.454 94.7119 753.356 94.7119C754.938 94.7119 756.128 95.0953 756.927 95.8621C757.726 96.6209 758.125 97.8391 758.125 99.5165V108.083H756.136ZM767.77 108.323C765.829 108.323 764.296 107.732 763.169 106.55C762.051 105.367 761.492 103.726 761.492 101.625C761.492 99.5085 762.011 97.8271 763.049 96.581C764.096 95.3349 765.498 94.7119 767.255 94.7119C768.9 94.7119 770.202 95.255 771.161 96.3414C772.12 97.4197 772.599 98.8455 772.599 100.619V101.877H763.553C763.593 103.418 763.98 104.589 764.715 105.387C765.458 106.186 766.5 106.586 767.842 106.586C769.256 106.586 770.654 106.29 772.036 105.699V107.472C771.333 107.776 770.666 107.991 770.035 108.119C769.412 108.255 768.657 108.323 767.77 108.323ZM767.231 96.3773C766.177 96.3773 765.334 96.7208 764.703 97.4077C764.08 98.0947 763.712 99.0452 763.601 100.259H770.466C770.466 99.0053 770.187 98.0467 769.627 97.3838C769.068 96.7128 768.269 96.3773 767.231 96.3773ZM781.992 94.7119C782.575 94.7119 783.099 94.7598 783.562 94.8557L783.286 96.7008C782.743 96.581 782.264 96.5211 781.849 96.5211C780.786 96.5211 779.876 96.9524 779.117 97.8151C778.366 98.6778 777.991 99.7521 777.991 101.038V108.083H776.002V94.9515H777.643L777.871 97.3838H777.967C778.454 96.5291 779.041 95.8701 779.728 95.4068C780.415 94.9435 781.17 94.7119 781.992 94.7119Z" fill="#666666"/>
<path d="M177.619 66.1946C177.619 70.4122 176.096 73.735 173.05 76.1633C170.026 78.5916 165.808 79.8057 160.398 79.8057C155.413 79.8057 151.004 78.8685 147.17 76.994V67.7922C150.323 69.198 152.985 70.1885 155.158 70.7636C157.352 71.3387 159.354 71.6263 161.165 71.6263C163.337 71.6263 164.999 71.2109 166.149 70.3802C167.32 69.5495 167.906 68.314 167.906 66.6739C167.906 65.758 167.651 64.9486 167.139 64.2456C166.628 63.5214 165.872 62.8291 164.871 62.1688C163.891 61.5085 161.878 60.4541 158.832 59.0057C155.978 57.6638 153.837 56.3751 152.41 55.1396C150.983 53.9042 149.843 52.4664 148.991 50.8263C148.139 49.1861 147.713 47.2691 147.713 45.0751C147.713 40.9428 149.108 37.6945 151.899 35.3301C154.71 32.9657 158.587 31.7836 163.529 31.7836C165.957 31.7836 168.268 32.0711 170.462 32.6462C172.677 33.2214 174.989 34.0308 177.396 35.0745L174.2 42.7747C171.708 41.7522 169.642 41.0387 168.002 40.634C166.383 40.2292 164.786 40.0269 163.209 40.0269C161.335 40.0269 159.897 40.4635 158.896 41.3369C157.895 42.2102 157.394 43.3498 157.394 44.7556C157.394 45.6289 157.597 46.3958 158.001 47.0561C158.406 47.6951 159.045 48.3235 159.918 48.9412C160.813 49.5376 162.911 50.6239 166.213 52.2002C170.579 54.2876 173.572 56.3857 175.191 58.4945C176.81 60.5819 177.619 63.1487 177.619 66.1946ZM200.113 49.708C198.046 49.708 196.428 50.3683 195.256 51.6889C194.085 52.9883 193.414 54.8414 193.243 57.2484H206.918C206.876 54.8414 206.247 52.9883 205.033 51.6889C203.819 50.3683 202.179 49.708 200.113 49.708ZM201.487 79.8057C195.735 79.8057 191.241 78.2188 188.003 75.045C184.766 71.8712 183.147 67.3768 183.147 61.5618C183.147 55.5763 184.638 50.9541 187.62 47.6951C190.623 44.4148 194.766 42.7747 200.049 42.7747C205.097 42.7747 209.027 44.2124 211.839 47.088C214.65 49.9636 216.056 53.9362 216.056 59.0057V63.7344H193.02C193.126 66.5035 193.946 68.6655 195.48 70.2204C197.013 71.7754 199.165 72.5529 201.934 72.5529C204.085 72.5529 206.119 72.3292 208.036 71.8819C209.953 71.4346 211.956 70.721 214.043 69.7412V77.2816C212.339 78.1336 210.518 78.762 208.58 79.1667C206.641 79.5927 204.277 79.8057 201.487 79.8057ZM243.917 42.7747C245.238 42.7747 246.335 42.8705 247.208 43.0622L246.473 52.2002C245.685 51.9872 244.727 51.8807 243.598 51.8807C240.488 51.8807 238.06 52.6794 236.313 54.277C234.588 55.8745 233.725 58.1111 233.725 60.9866V79.1667H223.98V43.4456H231.361L232.798 49.4524H233.278C234.385 47.4501 235.876 45.8419 237.751 44.6278C239.646 43.3924 241.702 42.7747 243.917 42.7747ZM262.193 79.1667L248.582 43.4456H258.774L265.676 63.7983C266.443 66.3757 266.922 68.8146 267.114 71.1151H267.305C267.412 69.0702 267.891 66.6313 268.743 63.7983L275.613 43.4456H285.805L272.194 79.1667H262.193ZM305.742 49.708C303.676 49.708 302.057 50.3683 300.886 51.6889C299.714 52.9883 299.043 54.8414 298.873 57.2484H312.548C312.505 54.8414 311.877 52.9883 310.663 51.6889C309.448 50.3683 307.808 49.708 305.742 49.708ZM307.116 79.8057C301.365 79.8057 296.87 78.2188 293.633 75.045C290.395 71.8712 288.776 67.3768 288.776 61.5618C288.776 55.5763 290.267 50.9541 293.249 47.6951C296.253 44.4148 300.396 42.7747 305.678 42.7747C310.726 42.7747 314.656 44.2124 317.468 47.088C320.28 49.9636 321.686 53.9362 321.686 59.0057V63.7344H298.649C298.756 66.5035 299.576 68.6655 301.109 70.2204C302.643 71.7754 304.794 72.5529 307.563 72.5529C309.715 72.5529 311.749 72.3292 313.666 71.8819C315.583 71.4346 317.585 70.721 319.673 69.7412V77.2816C317.969 78.1336 316.147 78.762 314.209 79.1667C312.271 79.5927 309.906 79.8057 307.116 79.8057ZM357.279 54.4367H360.538C363.584 54.4367 365.863 53.8403 367.375 52.6475C368.888 51.4333 369.644 49.676 369.644 47.3756C369.644 45.0538 369.005 43.3391 367.727 42.2315C366.47 41.1239 364.489 40.5701 361.784 40.5701H357.279V54.4367ZM379.644 47.0241C379.644 52.0511 378.068 55.8958 374.916 58.5584C371.785 61.221 367.322 62.5522 361.528 62.5522H357.279V79.1667H347.374V32.4545H362.295C367.961 32.4545 372.264 33.6793 375.203 36.1289C378.164 38.5571 379.644 42.1889 379.644 47.0241ZM407.633 42.7747C408.954 42.7747 410.051 42.8705 410.924 43.0622L410.19 52.2002C409.401 51.9872 408.443 51.8807 407.314 51.8807C404.204 51.8807 401.776 52.6794 400.029 54.277C398.304 55.8745 397.441 58.1111 397.441 60.9866V79.1667H387.696V43.4456H395.077L396.515 49.4524H396.994C398.101 47.4501 399.592 45.8419 401.467 44.6278C403.363 43.3924 405.418 42.7747 407.633 42.7747ZM425.174 61.2423C425.174 64.7782 425.75 67.4514 426.9 69.2619C428.071 71.0725 429.967 71.9777 432.587 71.9777C435.186 71.9777 437.05 71.0831 438.178 69.2939C439.329 67.4833 439.904 64.7995 439.904 61.2423C439.904 57.7064 439.329 55.0544 438.178 53.2865C437.028 51.5185 435.143 50.6346 432.523 50.6346C429.924 50.6346 428.05 51.5185 426.9 53.2865C425.75 55.0331 425.174 57.6851 425.174 61.2423ZM449.872 61.2423C449.872 67.0573 448.339 71.605 445.272 74.8853C442.204 78.1656 437.934 79.8057 432.459 79.8057C429.03 79.8057 426.005 79.0602 423.385 77.5691C420.765 76.0568 418.752 73.8948 417.346 71.0831C415.941 68.2714 415.238 64.9912 415.238 61.2423C415.238 55.4059 416.761 50.8689 419.807 47.6312C422.853 44.3935 427.134 42.7747 432.651 42.7747C436.08 42.7747 439.105 43.5202 441.725 45.0112C444.345 46.5023 446.358 48.643 447.764 51.4333C449.17 54.2237 449.872 57.4934 449.872 61.2423ZM477.67 50.7624H469.235V79.1667H459.49V50.7624H454.122V46.0656L459.49 43.4456V40.8257C459.49 36.7572 460.491 33.7858 462.493 31.9114C464.495 30.0369 467.701 29.0997 472.11 29.0997C475.476 29.0997 478.469 29.6003 481.088 30.6014L478.596 37.7584C476.637 37.1407 474.826 36.8318 473.165 36.8318C471.78 36.8318 470.779 37.2472 470.161 38.0779C469.544 38.8873 469.235 39.931 469.235 41.2091V43.4456H477.67V50.7624ZM498.086 49.708C496.02 49.708 494.401 50.3683 493.23 51.6889C492.058 52.9883 491.387 54.8414 491.217 57.2484H504.892C504.849 54.8414 504.221 52.9883 503.007 51.6889C501.793 50.3683 500.152 49.708 498.086 49.708ZM499.46 79.8057C493.709 79.8057 489.215 78.2188 485.977 75.045C482.739 71.8712 481.12 67.3768 481.12 61.5618C481.12 55.5763 482.611 50.9541 485.594 47.6951C488.597 44.4148 492.74 42.7747 498.022 42.7747C503.071 42.7747 507.001 44.2124 509.812 47.088C512.624 49.9636 514.03 53.9362 514.03 59.0057V63.7344H490.993C491.1 66.5035 491.92 68.6655 493.453 70.2204C494.987 71.7754 497.138 72.5529 499.908 72.5529C502.059 72.5529 504.093 72.3292 506.01 71.8819C507.927 71.4346 509.929 70.721 512.017 69.7412V77.2816C510.313 78.1336 508.492 78.762 506.553 79.1667C504.615 79.5927 502.251 79.8057 499.46 79.8057ZM546.875 68.559C546.875 72.2227 545.597 75.0131 543.041 76.9301C540.506 78.8472 536.704 79.8057 531.635 79.8057C529.036 79.8057 526.821 79.6246 524.989 79.2625C523.157 78.9217 521.442 78.4105 519.845 77.7289V69.6773C521.655 70.5293 523.69 71.2429 525.947 71.818C528.227 72.3931 530.229 72.6807 531.954 72.6807C535.49 72.6807 537.258 71.6582 537.258 69.6134C537.258 68.8466 537.024 68.2288 536.555 67.7602C536.087 67.2703 535.277 66.7272 534.127 66.1307C532.977 65.513 531.443 64.7995 529.526 63.99C526.778 62.8398 524.755 61.7748 523.455 60.7949C522.177 59.8151 521.24 58.6968 520.644 57.4401C520.069 56.1621 519.781 54.5965 519.781 52.7433C519.781 49.5695 521.006 47.12 523.455 45.3946C525.926 43.648 529.419 42.7747 533.935 42.7747C538.238 42.7747 542.423 43.7119 546.492 45.5863L543.552 52.6155C541.763 51.8487 540.091 51.2203 538.536 50.7304C536.981 50.2405 535.394 49.9956 533.775 49.9956C530.9 49.9956 529.462 50.773 529.462 52.328C529.462 53.2013 529.92 53.9575 530.836 54.5965C531.773 55.2355 533.807 56.1834 536.939 57.4401C539.729 58.569 541.774 59.6234 543.073 60.6032C544.372 61.5831 545.331 62.712 545.949 63.99C546.566 65.2681 546.875 66.7911 546.875 68.559ZM579.401 68.559C579.401 72.2227 578.123 75.0131 575.567 76.9301C573.032 78.8472 569.23 79.8057 564.161 79.8057C561.562 79.8057 559.347 79.6246 557.515 79.2625C555.683 78.9217 553.968 78.4105 552.371 77.7289V69.6773C554.181 70.5293 556.216 71.2429 558.473 71.818C560.753 72.3931 562.755 72.6807 564.48 72.6807C568.016 72.6807 569.784 71.6582 569.784 69.6134C569.784 68.8466 569.55 68.2288 569.081 67.7602C568.613 67.2703 567.803 66.7272 566.653 66.1307C565.503 65.513 563.969 64.7995 562.052 63.99C559.304 62.8398 557.281 61.7748 555.981 60.7949C554.703 59.8151 553.766 58.6968 553.17 57.4401C552.594 56.1621 552.307 54.5965 552.307 52.7433C552.307 49.5695 553.532 47.12 555.981 45.3946C558.452 43.648 561.945 42.7747 566.461 42.7747C570.764 42.7747 574.949 43.7119 579.018 45.5863L576.078 52.6155C574.289 51.8487 572.617 51.2203 571.062 50.7304C569.507 50.2405 567.92 49.9956 566.301 49.9956C563.426 49.9956 561.988 50.773 561.988 52.328C561.988 53.2013 562.446 53.9575 563.362 54.5965C564.299 55.2355 566.333 56.1834 569.465 57.4401C572.255 58.569 574.3 59.6234 575.599 60.6032C576.898 61.5831 577.857 62.712 578.475 63.99C579.092 65.2681 579.401 66.7911 579.401 68.559ZM586.59 34.2118C586.59 31.038 588.358 29.4512 591.894 29.4512C595.43 29.4512 597.198 31.038 597.198 34.2118C597.198 35.7242 596.751 36.9064 595.856 37.7584C594.983 38.5891 593.662 39.0045 591.894 39.0045C588.358 39.0045 586.59 37.4069 586.59 34.2118ZM596.751 79.1667H587.006V43.4456H596.751V79.1667ZM614.771 61.2423C614.771 64.7782 615.346 67.4514 616.496 69.2619C617.668 71.0725 619.563 71.9777 622.183 71.9777C624.782 71.9777 626.646 71.0831 627.775 69.2939C628.925 67.4833 629.5 64.7995 629.5 61.2423C629.5 57.7064 628.925 55.0544 627.775 53.2865C626.625 51.5185 624.74 50.6346 622.12 50.6346C619.521 50.6346 617.646 51.5185 616.496 53.2865C615.346 55.0331 614.771 57.6851 614.771 61.2423ZM639.469 61.2423C639.469 67.0573 637.935 71.605 634.868 74.8853C631.801 78.1656 627.53 79.8057 622.056 79.8057C618.626 79.8057 615.602 79.0602 612.982 77.5691C610.362 76.0568 608.349 73.8948 606.943 71.0831C605.537 68.2714 604.834 64.9912 604.834 61.2423C604.834 55.4059 606.357 50.8689 609.403 47.6312C612.449 44.3935 616.731 42.7747 622.247 42.7747C625.677 42.7747 628.701 43.5202 631.321 45.0112C633.941 46.5023 635.954 48.643 637.36 51.4333C638.766 54.2237 639.469 57.4934 639.469 61.2423ZM680.494 79.1667H670.749V58.3028C670.749 55.7254 670.291 53.7977 669.375 52.5197C668.459 51.2203 667 50.5707 664.998 50.5707C662.271 50.5707 660.301 51.4866 659.087 53.3184C657.873 55.129 657.265 58.143 657.265 62.3605V79.1667H647.52V43.4456H654.965L656.275 48.0146H656.818C657.905 46.2893 659.396 44.9899 661.291 44.1166C663.208 43.222 665.381 42.7747 667.809 42.7747C671.963 42.7747 675.115 43.9036 677.267 46.1615C679.418 48.398 680.494 51.6357 680.494 55.8745V79.1667ZM713.211 79.1667L711.326 74.3102H711.071C709.431 76.3763 707.737 77.8141 705.991 78.6235C704.265 79.4116 702.007 79.8057 699.217 79.8057C695.788 79.8057 693.082 78.8259 691.101 76.8662C689.142 74.9066 688.162 72.1162 688.162 68.4951C688.162 64.7036 689.483 61.9132 692.124 60.124C694.786 58.3134 698.791 57.3123 704.137 57.1206L710.336 56.9289V55.3633C710.336 51.7422 708.483 49.9317 704.776 49.9317C701.922 49.9317 698.567 50.7943 694.712 52.5197L691.485 45.9378C695.596 43.7864 700.154 42.7108 705.16 42.7108C709.952 42.7108 713.627 43.7545 716.183 45.8419C718.739 47.9294 720.017 51.1032 720.017 55.3633V79.1667H713.211ZM710.336 62.6161L706.566 62.7439C703.733 62.8291 701.624 63.3404 700.239 64.2776C698.855 65.2148 698.163 66.642 698.163 68.559C698.163 71.3068 699.739 72.6807 702.891 72.6807C705.149 72.6807 706.949 72.031 708.291 70.7317C709.654 69.4323 710.336 67.707 710.336 65.5556V62.6161ZM739.826 79.1667H730.081V29.4512H739.826V79.1667ZM775.004 68.559C775.004 72.2227 773.726 75.0131 771.17 76.9301C768.636 78.8472 764.833 79.8057 759.764 79.8057C757.165 79.8057 754.95 79.6246 753.118 79.2625C751.286 78.9217 749.572 78.4105 747.974 77.7289V69.6773C749.785 70.5293 751.819 71.2429 754.077 71.818C756.356 72.3931 758.358 72.6807 760.083 72.6807C763.619 72.6807 765.387 71.6582 765.387 69.6134C765.387 68.8466 765.153 68.2288 764.684 67.7602C764.216 67.2703 763.406 66.7272 762.256 66.1307C761.106 65.513 759.572 64.7995 757.655 63.99C754.907 62.8398 752.884 61.7748 751.584 60.7949C750.306 59.8151 749.369 58.6968 748.773 57.4401C748.198 56.1621 747.91 54.5965 747.91 52.7433C747.91 49.5695 749.135 47.12 751.584 45.3946C754.055 43.648 757.549 42.7747 762.064 42.7747C766.367 42.7747 770.553 43.7119 774.621 45.5863L771.682 52.6155C769.892 51.8487 768.22 51.2203 766.665 50.7304C765.11 50.2405 763.523 49.9956 761.905 49.9956C759.029 49.9956 757.591 50.773 757.591 52.328C757.591 53.2013 758.049 53.9575 758.965 54.5965C759.902 55.2355 761.937 56.1834 765.068 57.4401C767.858 58.569 769.903 59.6234 771.202 60.6032C772.502 61.5831 773.46 62.712 774.078 63.99C774.696 65.2681 775.004 66.7911 775.004 68.559Z" fill="#335EEA"/>
<rect width="125" height="125" rx="12.2691" fill="#335EEA"/>
<path d="M88.0378 20.4456C88.2047 21.2239 88.0378 22.0301 87.6483 22.6695C87.231 23.3645 86.5356 23.9204 85.701 24.1428L26.6419 39.3489C24.8615 39.8215 22.8864 38.7373 22.5247 36.9304C22.3578 36.152 22.5247 35.3459 22.9142 34.7065C23.0255 34.5397 23.1367 34.3729 23.248 34.2339L23.4984 33.9837L44.0842 12.2449C45.2804 10.9661 47.3112 10.9105 48.5909 12.1337C49.036 12.5506 49.342 13.0788 49.4811 13.6348C49.7592 14.6634 49.4811 15.8031 48.7021 16.6371L35.683 30.3976C35.6552 30.4254 35.683 30.4532 35.7108 30.4532L83.9206 18.0271C85.7288 17.5823 87.6761 18.6386 88.0378 20.4456Z" fill="white"/>
<path d="M90.6528 42.8794L20.9947 60.8097C19.3534 61.2267 17.6843 60.2538 17.2392 58.6136L17.1835 58.3912C16.7662 56.7511 17.7399 55.0831 19.3812 54.6384L89.0393 36.708C90.6806 36.291 92.3497 37.264 92.7948 38.9041L92.8504 39.1265C93.2955 40.7666 92.2941 42.4346 90.6528 42.8794Z" fill="white"/>
<path d="M78.3291 56.0283L32.7064 67.7595C31.0651 68.1765 29.396 67.2035 28.9509 65.5634L28.8952 65.341C28.4779 63.7008 29.4516 62.0329 31.0929 61.5881L76.7156 49.8569C78.3569 49.4399 80.026 50.4129 80.4711 52.053L80.5268 52.2754C80.9719 53.9434 79.9704 55.6113 78.3291 56.0283Z" fill="white"/>
<path d="M102.003 29.9529L18.491 51.4415C16.8497 51.8585 15.1806 50.8855 14.7355 49.2454L14.6799 49.023C14.2626 47.3829 15.2362 45.7149 16.8775 45.2701L100.389 23.7815C102.031 23.3645 103.7 24.3375 104.145 25.9776L104.201 26.2C104.618 27.8679 103.644 29.5359 102.003 29.9529Z" fill="white"/>
<path d="M36.6844 104.538C36.5175 103.759 36.6844 102.953 37.0739 102.314C37.4912 101.619 38.1867 101.063 39.0212 100.84L98.0804 85.6343C99.8608 85.1617 101.836 86.2458 102.198 88.0528C102.364 88.8312 102.198 89.6373 101.808 90.2767C101.697 90.4435 101.586 90.6103 101.474 90.7493L101.224 90.9995L80.638 112.738C79.4418 114.017 77.411 114.073 76.1314 112.85C75.6863 112.433 75.3803 111.904 75.2412 111.348C74.963 110.32 75.2412 109.18 76.0201 108.346L89.0671 94.5856C89.0949 94.5578 89.0671 94.53 89.0393 94.53L40.8016 106.956C39.0212 107.401 37.0461 106.345 36.6844 104.538Z" fill="white"/>
<path d="M34.0695 82.1038L103.728 64.1734C105.369 63.7565 107.038 64.7294 107.483 66.3696L107.539 66.592C107.956 68.2321 106.982 69.9 105.341 70.3448L35.6552 88.2752C34.0138 88.6922 32.3447 87.7192 31.8996 86.0791L31.844 85.8567C31.4267 84.2165 32.4282 82.5486 34.0695 82.1038Z" fill="white"/>
<path d="M46.3932 68.9549L92.0159 57.2237C93.6572 56.8067 95.3263 57.7797 95.7714 59.4198L95.827 59.6422C96.2443 61.2823 95.2707 62.9503 93.6294 63.3951L48.0067 75.1262C46.3654 75.5432 44.6962 74.5703 44.2511 72.9301L44.1955 72.7077C43.7504 71.0398 44.7519 69.3718 46.3932 68.9549Z" fill="white"/>
<path d="M22.7473 95.0304L106.231 73.5417C107.873 73.1247 109.542 74.0977 109.987 75.7378L110.042 75.9602C110.46 77.6004 109.486 79.2683 107.845 79.7131L24.3329 101.202C22.6916 101.619 21.0225 100.646 20.5774 99.0056L20.5218 98.7832C20.1045 97.1153 21.0781 95.4474 22.7473 95.0304Z" fill="white"/>
</svg>
