<svg width="1896" height="300" viewBox="0 0 1896 300" fill="none" xmlns="http://www.w3.org/2000/svg">
<path d="M1189.45 259.399H1184.54V221.672H1171.31V217.359H1202.62V221.672H1189.45V259.399ZM1220.04 227.366C1223.8 227.366 1226.59 228.21 1228.41 229.896C1230.23 231.583 1231.14 234.277 1231.14 237.977V259.399H1227.66L1226.74 254.741H1226.51C1225.63 255.893 1224.71 256.86 1223.75 257.645C1222.79 258.413 1221.68 258.998 1220.42 259.399C1219.17 259.783 1217.64 259.975 1215.82 259.975C1213.9 259.975 1212.19 259.639 1210.7 258.97C1209.22 258.298 1208.05 257.282 1207.19 255.922C1206.35 254.558 1205.92 252.835 1205.92 250.745C1205.92 247.601 1207.17 245.184 1209.66 243.499C1212.15 241.812 1215.95 240.89 1221.05 240.737L1226.48 240.506V238.581C1226.48 235.859 1225.9 233.951 1224.73 232.858C1223.56 231.766 1221.91 231.219 1219.78 231.219C1218.13 231.219 1216.56 231.459 1215.07 231.938C1213.57 232.417 1212.15 232.983 1210.81 233.635L1209.35 230.011C1210.76 229.283 1212.39 228.66 1214.23 228.142C1216.08 227.625 1218.01 227.366 1220.04 227.366ZM1226.42 243.871L1221.62 244.073C1217.69 244.226 1214.92 244.87 1213.31 246C1211.7 247.13 1210.9 248.731 1210.9 250.802C1210.9 252.605 1211.45 253.937 1212.54 254.798C1213.63 255.662 1215.08 256.092 1216.88 256.092C1219.68 256.092 1221.97 255.317 1223.75 253.764C1225.53 252.211 1226.42 249.881 1226.42 246.775V243.871ZM1245.77 259.399H1240.97V214.656H1245.77V259.399ZM1268 227.309C1270.68 227.309 1272.98 227.903 1274.9 229.091C1276.82 230.28 1278.28 231.948 1279.3 234.095C1280.31 236.223 1280.82 238.715 1280.82 241.572V244.534H1259.06C1259.11 248.232 1260.03 251.052 1261.82 252.986C1263.6 254.923 1266.11 255.893 1269.35 255.893C1271.34 255.893 1273.11 255.71 1274.64 255.346C1276.17 254.981 1277.76 254.443 1279.41 253.735V257.933C1277.82 258.643 1276.24 259.159 1274.67 259.486C1273.12 259.812 1271.27 259.975 1269.15 259.975C1266.12 259.975 1263.47 259.361 1261.21 258.134C1258.97 256.889 1257.23 255.067 1255.98 252.672C1254.73 250.274 1254.11 247.342 1254.11 243.871C1254.11 240.478 1254.68 237.546 1255.81 235.073C1256.96 232.58 1258.57 230.663 1260.64 229.321C1262.73 227.979 1265.18 227.309 1268 227.309ZM1267.94 231.219C1265.39 231.219 1263.36 232.053 1261.84 233.721C1260.33 235.389 1259.43 237.718 1259.14 240.708H1275.82C1275.8 238.83 1275.5 237.181 1274.93 235.763C1274.37 234.325 1273.52 233.213 1272.37 232.427C1271.22 231.622 1269.74 231.219 1267.94 231.219ZM1303.85 227.309C1307.59 227.309 1310.41 228.229 1312.33 230.069C1314.25 231.89 1315.21 234.823 1315.21 238.868V259.399H1310.49V239.185C1310.49 236.558 1309.89 234.593 1308.68 233.29C1307.49 231.986 1305.66 231.334 1303.19 231.334C1299.7 231.334 1297.25 232.322 1295.83 234.296C1294.41 236.271 1293.7 239.137 1293.7 242.894V259.399H1288.93V227.884H1292.78L1293.5 232.427H1293.76C1294.43 231.315 1295.28 230.385 1296.32 229.638C1297.35 228.871 1298.51 228.296 1299.8 227.912C1301.08 227.51 1302.43 227.309 1303.85 227.309ZM1335.22 256.063C1336 256.063 1336.81 255.996 1337.63 255.864C1338.46 255.73 1339.13 255.566 1339.64 255.374V259.085C1339.09 259.332 1338.31 259.543 1337.32 259.716C1336.34 259.889 1335.38 259.975 1334.44 259.975C1332.77 259.975 1331.26 259.687 1329.9 259.111C1328.54 258.518 1327.44 257.522 1326.62 256.121C1325.81 254.722 1325.41 252.787 1325.41 250.313V231.622H1320.93V229.293L1325.44 227.424L1327.34 220.58H1330.21V227.884H1339.44V231.622H1330.21V250.169C1330.21 252.144 1330.66 253.62 1331.57 254.597C1332.49 255.576 1333.7 256.063 1335.22 256.063ZM1388.41 259.399L1383.23 246.058H1366.38L1361.24 259.399H1356.29L1372.74 217.187H1377.13L1393.47 259.399H1388.41ZM1381.76 241.716L1376.85 228.459C1376.73 228.114 1376.54 227.548 1376.27 226.762C1376.02 225.976 1375.76 225.162 1375.5 224.318C1375.23 223.474 1375.01 222.794 1374.84 222.276C1374.64 223.062 1374.43 223.848 1374.2 224.634C1373.99 225.401 1373.78 226.12 1373.57 226.791C1373.36 227.443 1373.18 227.999 1373.02 228.459L1368.02 241.716H1381.76ZM1411.21 259.975C1408.37 259.975 1405.87 259.39 1403.7 258.221C1401.54 257.052 1399.85 255.269 1398.64 252.871C1397.43 250.476 1396.83 247.457 1396.83 243.814C1396.83 239.999 1397.46 236.884 1398.73 234.469C1400.01 232.034 1401.78 230.232 1404.02 229.063C1406.26 227.893 1408.81 227.309 1411.66 227.309C1413.24 227.309 1414.75 227.472 1416.21 227.797C1417.68 228.104 1418.89 228.497 1419.83 228.976L1418.39 232.973C1417.44 232.59 1416.32 232.245 1415.06 231.938C1413.81 231.631 1412.64 231.478 1411.55 231.478C1409.37 231.478 1407.54 231.948 1406.09 232.887C1404.65 233.826 1403.57 235.207 1402.84 237.028C1402.13 238.849 1401.78 241.092 1401.78 243.756C1401.78 246.307 1402.12 248.482 1402.81 250.284C1403.52 252.086 1404.56 253.466 1405.94 254.426C1407.34 255.365 1409.09 255.835 1411.18 255.835C1412.84 255.835 1414.35 255.662 1415.69 255.317C1417.03 254.952 1418.25 254.53 1419.34 254.052V258.307C1418.29 258.845 1417.11 259.255 1415.81 259.543C1414.52 259.831 1412.99 259.975 1411.21 259.975ZM1447.95 273.49V259.975C1447.95 259.226 1447.97 258.365 1448.01 257.388C1448.04 256.409 1448.11 255.566 1448.21 254.856H1447.89C1447.01 256.313 1445.75 257.532 1444.12 258.509C1442.49 259.486 1440.4 259.975 1437.83 259.975C1433.98 259.975 1430.88 258.614 1428.54 255.893C1426.2 253.169 1425.03 249.106 1425.03 243.698C1425.03 240.154 1425.57 237.162 1426.64 234.727C1427.72 232.293 1429.23 230.453 1431.19 229.206C1433.16 227.941 1435.46 227.309 1438.09 227.309C1440.6 227.309 1442.65 227.807 1444.24 228.804C1445.83 229.782 1447.08 230.98 1447.98 232.398H1448.21L1448.92 227.884H1452.72V273.49H1447.95ZM1438.72 256.006C1440.94 256.006 1442.72 255.595 1444.07 254.77C1445.41 253.927 1446.39 252.662 1447 250.975C1447.63 249.288 1447.97 247.188 1448.01 244.678V243.67C1448.01 239.606 1447.31 236.53 1445.94 234.44C1444.56 232.331 1442.15 231.277 1438.72 231.277C1435.77 231.277 1433.57 232.408 1432.14 234.67C1430.7 236.913 1429.98 239.961 1429.98 243.814C1429.98 247.668 1430.7 250.668 1432.14 252.816C1433.57 254.942 1435.77 256.006 1438.72 256.006ZM1488.89 227.884V259.399H1484.98L1484.29 254.971H1484.03C1483.38 256.063 1482.54 256.985 1481.5 257.731C1480.46 258.48 1479.3 259.037 1477.99 259.399C1476.71 259.783 1475.34 259.975 1473.88 259.975C1471.39 259.975 1469.3 259.572 1467.61 258.768C1465.93 257.962 1464.65 256.716 1463.79 255.029C1462.95 253.342 1462.53 251.177 1462.53 248.53V227.884H1467.36V248.184C1467.36 250.812 1467.95 252.778 1469.14 254.081C1470.33 255.365 1472.14 256.006 1474.57 256.006C1476.91 256.006 1478.77 255.566 1480.15 254.683C1481.55 253.802 1482.55 252.509 1483.17 250.802C1483.78 249.077 1484.09 246.967 1484.09 244.476V227.884H1488.89ZM1503.75 227.884V259.399H1498.98V227.884H1503.75ZM1501.43 216.094C1502.21 216.094 1502.88 216.353 1503.44 216.87C1504.01 217.368 1504.3 218.154 1504.3 219.228C1504.3 220.283 1504.01 221.069 1503.44 221.586C1502.88 222.104 1502.21 222.362 1501.43 222.362C1500.6 222.362 1499.91 222.104 1499.35 221.586C1498.82 221.069 1498.55 220.283 1498.55 219.228C1498.55 218.154 1498.82 217.368 1499.35 216.87C1499.91 216.353 1500.6 216.094 1501.43 216.094ZM1534.26 250.774C1534.26 252.787 1533.75 254.482 1532.73 255.864C1531.74 257.225 1530.3 258.25 1528.42 258.941C1526.56 259.63 1524.34 259.975 1521.75 259.975C1519.55 259.975 1517.64 259.802 1516.03 259.457C1514.42 259.111 1513.01 258.624 1511.8 257.99V253.591C1513.09 254.225 1514.62 254.798 1516.4 255.317C1518.19 255.835 1520.01 256.092 1521.87 256.092C1524.59 256.092 1526.56 255.653 1527.79 254.77C1529.02 253.889 1529.63 252.691 1529.63 251.177C1529.63 250.313 1529.38 249.557 1528.88 248.904C1528.4 248.232 1527.59 247.591 1526.44 246.977C1525.29 246.346 1523.7 245.654 1521.67 244.908C1519.65 244.14 1517.91 243.384 1516.43 242.635C1514.98 241.87 1513.85 240.938 1513.04 239.846C1512.25 238.753 1511.86 237.335 1511.86 235.59C1511.86 232.926 1512.93 230.884 1515.08 229.465C1517.25 228.027 1520.08 227.309 1523.59 227.309C1525.49 227.309 1527.26 227.5 1528.91 227.884C1530.58 228.248 1532.13 228.746 1533.57 229.379L1531.96 233.203C1530.65 232.648 1529.27 232.178 1527.79 231.794C1526.31 231.411 1524.81 231.219 1523.28 231.219C1521.07 231.219 1519.37 231.583 1518.19 232.312C1517.02 233.04 1516.43 234.037 1516.43 235.303C1516.43 236.28 1516.7 237.085 1517.24 237.718C1517.79 238.351 1518.68 238.945 1519.88 239.501C1521.09 240.058 1522.68 240.708 1524.66 241.457C1526.63 242.184 1528.33 242.942 1529.77 243.727C1531.21 244.495 1532.31 245.434 1533.08 246.547C1533.87 247.639 1534.26 249.048 1534.26 250.774ZM1546.71 227.884V259.399H1541.93V227.884H1546.71ZM1544.38 216.094C1545.16 216.094 1545.83 216.353 1546.39 216.87C1546.97 217.368 1547.25 218.154 1547.25 219.228C1547.25 220.283 1546.97 221.069 1546.39 221.586C1545.83 222.104 1545.16 222.362 1544.38 222.362C1543.55 222.362 1542.86 222.104 1542.31 221.586C1541.77 221.069 1541.5 220.283 1541.5 219.228C1541.5 218.154 1541.77 217.368 1542.31 216.87C1542.86 216.353 1543.55 216.094 1544.38 216.094ZM1567.01 256.063C1567.79 256.063 1568.6 255.996 1569.42 255.864C1570.24 255.73 1570.91 255.566 1571.43 255.374V259.085C1570.88 259.332 1570.1 259.543 1569.1 259.716C1568.13 259.889 1567.17 259.975 1566.23 259.975C1564.56 259.975 1563.05 259.687 1561.69 259.111C1560.33 258.518 1559.23 257.522 1558.41 256.121C1557.6 254.722 1557.2 252.787 1557.2 250.313V231.622H1552.72V229.293L1557.23 227.424L1559.13 220.58H1562V227.884H1571.23V231.622H1562V250.169C1562 252.144 1562.45 253.62 1563.35 254.597C1564.27 255.576 1565.49 256.063 1567.01 256.063ZM1582.59 227.884V259.399H1577.82V227.884H1582.59ZM1580.26 216.094C1581.05 216.094 1581.71 216.353 1582.27 216.87C1582.85 217.368 1583.13 218.154 1583.13 219.228C1583.13 220.283 1582.85 221.069 1582.27 221.586C1581.71 222.104 1581.05 222.362 1580.26 222.362C1579.44 222.362 1578.74 222.104 1578.19 221.586C1577.65 221.069 1577.38 220.283 1577.38 219.228C1577.38 218.154 1577.65 217.368 1578.19 216.87C1578.74 216.353 1579.44 216.094 1580.26 216.094ZM1619.88 243.583C1619.88 246.173 1619.54 248.482 1618.87 250.514C1618.2 252.547 1617.23 254.263 1615.97 255.662C1614.7 257.062 1613.17 258.134 1611.37 258.883C1609.58 259.61 1607.56 259.975 1605.3 259.975C1603.19 259.975 1601.26 259.61 1599.49 258.883C1597.75 258.134 1596.23 257.062 1594.95 255.662C1593.69 254.263 1592.7 252.547 1591.99 250.514C1591.3 248.482 1590.95 246.173 1590.95 243.583C1590.95 240.134 1591.54 237.2 1592.71 234.785C1593.88 232.35 1595.54 230.5 1597.71 229.235C1599.9 227.951 1602.49 227.309 1605.5 227.309C1608.38 227.309 1610.89 227.951 1613.03 229.235C1615.2 230.52 1616.88 232.379 1618.07 234.814C1619.27 237.229 1619.88 240.154 1619.88 243.583ZM1595.9 243.583C1595.9 246.115 1596.23 248.309 1596.91 250.169C1597.58 252.029 1598.61 253.466 1600.01 254.482C1601.41 255.499 1603.21 256.006 1605.42 256.006C1607.6 256.006 1609.39 255.499 1610.79 254.482C1612.21 253.466 1613.25 252.029 1613.93 250.169C1614.6 248.309 1614.93 246.115 1614.93 243.583C1614.93 241.073 1614.6 238.907 1613.93 237.085C1613.25 235.245 1612.22 233.826 1610.82 232.83C1609.42 231.833 1607.61 231.334 1605.39 231.334C1602.11 231.334 1599.7 232.417 1598.17 234.584C1596.66 236.75 1595.9 239.75 1595.9 243.583ZM1643.05 227.309C1646.79 227.309 1649.62 228.229 1651.53 230.069C1653.45 231.89 1654.41 234.823 1654.41 238.868V259.399H1649.69V239.185C1649.69 236.558 1649.09 234.593 1647.88 233.29C1646.69 231.986 1644.86 231.334 1642.39 231.334C1638.9 231.334 1636.45 232.322 1635.03 234.296C1633.61 236.271 1632.9 239.137 1632.9 242.894V259.399H1628.13V227.884H1631.98L1632.7 232.427H1632.96C1633.63 231.315 1634.48 230.385 1635.52 229.638C1636.55 228.871 1637.71 228.296 1639 227.912C1640.28 227.51 1641.63 227.309 1643.05 227.309ZM1691.24 217.359C1696.66 217.359 1700.62 218.423 1703.11 220.551C1705.62 222.66 1706.88 225.689 1706.88 229.638C1706.88 231.42 1706.58 233.117 1705.99 234.727C1705.41 236.319 1704.47 237.728 1703.17 238.955C1701.86 240.163 1700.15 241.121 1698.02 241.831C1695.91 242.52 1693.33 242.866 1690.26 242.866H1685.14V259.399H1680.25V217.359H1691.24ZM1690.78 221.529H1685.14V238.667H1689.71C1692.4 238.667 1694.63 238.38 1696.41 237.804C1698.21 237.229 1699.57 236.299 1700.47 235.015C1701.37 233.712 1701.82 231.986 1701.82 229.839C1701.82 227.04 1700.93 224.96 1699.14 223.599C1697.36 222.219 1694.57 221.529 1690.78 221.529ZM1726.74 227.366C1730.5 227.366 1733.29 228.21 1735.11 229.896C1736.93 231.583 1737.84 234.277 1737.84 237.977V259.399H1734.36L1733.44 254.741H1733.21C1732.33 255.893 1731.41 256.86 1730.45 257.645C1729.5 258.413 1728.38 258.998 1727.12 259.399C1725.87 259.783 1724.34 259.975 1722.52 259.975C1720.6 259.975 1718.89 259.639 1717.4 258.97C1715.92 258.298 1714.75 257.282 1713.89 255.922C1713.05 254.558 1712.63 252.835 1712.63 250.745C1712.63 247.601 1713.87 245.184 1716.36 243.499C1718.86 241.812 1722.65 240.89 1727.75 240.737L1733.18 240.506V238.581C1733.18 235.859 1732.6 233.951 1731.43 232.858C1730.26 231.766 1728.61 231.219 1726.48 231.219C1724.84 231.219 1723.27 231.459 1721.77 231.938C1720.27 232.417 1718.86 232.983 1717.51 233.635L1716.05 230.011C1717.47 229.283 1719.1 228.66 1720.94 228.142C1722.78 227.625 1724.71 227.366 1726.74 227.366ZM1733.13 243.871L1728.32 244.073C1724.4 244.226 1721.63 244.87 1720.02 246C1718.41 247.13 1717.6 248.731 1717.6 250.802C1717.6 252.605 1718.15 253.937 1719.24 254.798C1720.33 255.662 1721.78 256.092 1723.58 256.092C1726.38 256.092 1728.67 255.317 1730.45 253.764C1732.24 252.211 1733.13 249.881 1733.13 246.775V243.871ZM1761.99 227.309C1762.62 227.309 1763.29 227.347 1763.97 227.424C1764.67 227.481 1765.28 227.567 1765.82 227.682L1765.21 232.111C1764.69 231.977 1764.12 231.871 1763.49 231.794C1762.85 231.718 1762.26 231.679 1761.7 231.679C1760.44 231.679 1759.24 231.938 1758.11 232.456C1757 232.954 1756.02 233.683 1755.18 234.641C1754.34 235.581 1753.67 236.721 1753.19 238.063C1752.72 239.386 1752.48 240.862 1752.48 242.491V259.399H1747.67V227.884H1751.64L1752.16 233.692H1752.36C1753.01 232.523 1753.8 231.459 1754.72 230.5C1755.64 229.523 1756.7 228.746 1757.91 228.171C1759.14 227.596 1760.5 227.309 1761.99 227.309ZM1781.95 256.063C1782.73 256.063 1783.54 255.996 1784.36 255.864C1785.18 255.73 1785.85 255.566 1786.37 255.374V259.085C1785.82 259.332 1785.04 259.543 1784.04 259.716C1783.07 259.889 1782.11 259.975 1781.17 259.975C1779.5 259.975 1777.99 259.687 1776.63 259.111C1775.26 258.518 1774.17 257.522 1773.35 256.121C1772.54 254.722 1772.14 252.787 1772.14 250.313V231.622H1767.66V229.293L1772.17 227.424L1774.07 220.58H1776.94V227.884H1786.17V231.622H1776.94V250.169C1776.94 252.144 1777.39 253.62 1778.29 254.597C1779.21 255.576 1780.43 256.063 1781.95 256.063ZM1807.68 227.309C1811.41 227.309 1814.24 228.229 1816.16 230.069C1818.08 231.89 1819.03 234.823 1819.03 238.868V259.399H1814.32V239.185C1814.32 236.558 1813.72 234.593 1812.51 233.29C1811.32 231.986 1809.49 231.334 1807.02 231.334C1803.53 231.334 1801.07 232.322 1799.66 234.296C1798.24 236.271 1797.53 239.137 1797.53 242.894V259.399H1792.76V227.884H1796.61L1797.33 232.427H1797.59C1798.25 231.315 1799.11 230.385 1800.14 229.638C1801.18 228.871 1802.34 228.296 1803.62 227.912C1804.91 227.51 1806.26 227.309 1807.68 227.309ZM1841 227.309C1843.68 227.309 1845.98 227.903 1847.9 229.091C1849.81 230.28 1851.28 231.948 1852.3 234.095C1853.31 236.223 1853.82 238.715 1853.82 241.572V244.534H1832.06C1832.12 248.232 1833.03 251.052 1834.82 252.986C1836.6 254.923 1839.11 255.893 1842.35 255.893C1844.34 255.893 1846.11 255.71 1847.64 255.346C1849.17 254.981 1850.76 254.443 1852.41 253.735V257.933C1850.82 258.643 1849.24 259.159 1847.67 259.486C1846.12 259.812 1844.28 259.975 1842.15 259.975C1839.12 259.975 1836.48 259.361 1834.21 258.134C1831.97 256.889 1830.23 255.067 1828.98 252.672C1827.74 250.274 1827.11 247.342 1827.11 243.871C1827.11 240.478 1827.68 237.546 1828.81 235.073C1829.96 232.58 1831.57 230.663 1833.64 229.321C1835.73 227.979 1838.18 227.309 1841 227.309ZM1840.94 231.219C1838.39 231.219 1836.36 232.053 1834.85 233.721C1833.33 235.389 1832.43 237.718 1832.14 240.708H1848.82C1848.8 238.83 1848.5 237.181 1847.93 235.763C1847.37 234.325 1846.52 233.213 1845.37 232.427C1844.22 231.622 1842.74 231.219 1840.94 231.219ZM1876.25 227.309C1876.88 227.309 1877.54 227.347 1878.23 227.424C1878.92 227.481 1879.53 227.567 1880.07 227.682L1879.47 232.111C1878.95 231.977 1878.37 231.871 1877.74 231.794C1877.11 231.718 1876.51 231.679 1875.96 231.679C1874.69 231.679 1873.5 231.938 1872.37 232.456C1871.25 232.954 1870.28 233.683 1869.43 234.641C1868.59 235.581 1867.93 236.721 1867.45 238.063C1866.97 239.386 1866.73 240.862 1866.73 242.491V259.399H1861.93V227.884H1865.9L1866.41 233.692H1866.62C1867.27 232.523 1868.05 231.459 1868.97 230.5C1869.89 229.523 1870.96 228.746 1872.16 228.171C1873.39 227.596 1874.75 227.309 1876.25 227.309Z" fill="#666666"/>
<path d="M426.21 158.867C426.21 165.513 424.6 171.29 421.38 176.197C418.159 181.105 413.459 184.888 407.272 187.546C401.139 190.205 393.676 191.534 384.887 191.534C381.002 191.534 377.194 191.278 373.462 190.767C369.781 190.256 366.23 189.514 362.806 188.543C359.432 187.521 356.212 186.268 353.145 184.786V162.701C358.46 165.053 363.982 167.174 369.705 169.066C375.43 170.957 381.103 171.903 386.727 171.903C390.61 171.903 393.729 171.392 396.081 170.369C398.483 169.347 400.22 167.941 401.293 166.152C402.368 164.363 402.903 162.318 402.903 160.017C402.903 157.206 401.957 154.803 400.067 152.809C398.176 150.815 395.57 148.949 392.246 147.211C388.976 145.473 385.268 143.607 381.129 141.614C378.523 140.387 375.687 138.904 372.62 137.166C369.554 135.377 366.638 133.204 363.879 130.648C361.119 128.092 358.844 124.999 357.057 121.37C355.317 117.689 354.448 113.292 354.448 108.18C354.448 101.483 355.982 95.7578 359.048 91.0034C362.115 86.2492 366.487 82.6195 372.159 80.1146C377.885 77.5586 384.63 76.2806 392.4 76.2806C398.226 76.2806 403.771 76.9706 409.036 78.3508C414.351 79.6802 419.899 81.6228 425.675 84.1788L418.006 102.659C412.844 100.563 408.218 98.9529 404.129 97.8283C400.04 96.6523 395.874 96.0645 391.632 96.0645C388.669 96.0645 386.139 96.55 384.042 97.5215C381.947 98.4417 380.364 99.7708 379.289 101.509C378.216 103.196 377.679 105.164 377.679 107.413C377.679 110.072 378.446 112.321 379.98 114.161C381.563 115.951 383.915 117.689 387.032 119.376C390.202 121.063 394.137 123.031 398.84 125.28C404.563 127.99 409.446 130.827 413.483 133.792C417.571 136.706 420.715 140.157 422.913 144.144C425.111 148.08 426.21 152.988 426.21 158.867ZM480.032 102.659C487.953 102.659 494.778 104.193 500.503 107.26C506.226 110.276 510.648 114.673 513.766 120.449C516.883 126.226 518.442 133.281 518.442 141.614V152.963H463.166C463.42 159.557 465.388 164.746 469.069 168.529C472.8 172.261 477.962 174.127 484.556 174.127C490.024 174.127 495.032 173.565 499.582 172.44C504.131 171.315 508.808 169.628 513.612 167.379V185.476C509.37 187.572 504.923 189.105 500.273 190.077C495.673 191.048 490.075 191.534 483.483 191.534C474.895 191.534 467.279 189.949 460.634 186.779C454.04 183.61 448.852 178.779 445.071 172.286C441.339 165.794 439.475 157.615 439.475 147.748C439.475 137.729 441.162 129.396 444.533 122.75C447.96 116.053 452.713 111.043 458.794 107.72C464.877 104.346 471.955 102.659 480.032 102.659ZM480.186 119.299C475.636 119.299 471.855 120.756 468.838 123.67C465.872 126.584 464.162 131.159 463.701 137.396H496.515C496.465 133.92 495.826 130.827 494.598 128.117C493.422 125.408 491.634 123.261 489.232 121.676C486.881 120.092 483.864 119.299 480.186 119.299ZM585.297 102.659C586.473 102.659 587.828 102.736 589.362 102.889C590.945 102.991 592.222 103.145 593.194 103.349L591.43 125.28C590.665 125.025 589.566 124.846 588.133 124.744C586.753 124.59 585.554 124.514 584.531 124.514C581.515 124.514 578.576 124.897 575.713 125.664C572.903 126.431 570.371 127.683 568.123 129.421C565.875 131.108 564.087 133.358 562.758 136.169C561.479 138.93 560.84 142.329 560.84 146.368V190H537.457V104.269H555.168L558.616 118.686H559.768C561.455 115.772 563.549 113.113 566.055 110.711C568.61 108.257 571.497 106.314 574.717 104.883C577.988 103.4 581.515 102.659 585.297 102.659ZM629.151 190L596.491 104.269H620.947L637.509 153.116C638.428 155.979 639.143 158.995 639.654 162.164C640.218 165.334 640.6 168.171 640.806 170.676H641.418C641.572 167.967 641.929 165.078 642.493 162.011C643.105 158.944 643.897 155.979 644.869 153.116L661.354 104.269H685.81L653.15 190H629.151ZM733.497 102.659C741.42 102.659 748.242 104.193 753.968 107.26C759.693 110.276 764.113 114.673 767.233 120.449C770.35 126.226 771.909 133.281 771.909 141.614V152.963H716.63C716.887 159.557 718.855 164.746 722.533 168.529C726.265 172.261 731.428 174.127 738.02 174.127C743.491 174.127 748.499 173.565 753.049 172.44C757.596 171.315 762.273 169.628 767.079 167.379V185.476C762.837 187.572 758.39 189.105 753.737 190.077C749.137 191.048 743.542 191.534 736.947 191.534C728.362 191.534 720.746 189.949 714.101 186.779C707.507 183.61 702.319 178.779 698.538 172.286C694.806 165.794 692.939 157.615 692.939 147.748C692.939 137.729 694.626 129.396 698 122.75C701.424 116.053 706.178 111.043 712.261 107.72C718.344 104.346 725.422 102.659 733.497 102.659ZM733.65 119.299C729.101 119.299 725.319 120.756 722.303 123.67C719.339 126.584 717.626 131.159 717.168 137.396H749.982C749.929 133.92 749.291 130.827 748.065 128.117C746.889 125.408 745.099 123.261 742.697 121.676C740.348 120.092 737.331 119.299 733.65 119.299ZM869.354 77.8907C883.818 77.8907 894.374 81.0093 901.018 87.246C907.663 93.4317 910.984 101.969 910.984 112.858C910.984 117.766 910.245 122.469 908.762 126.967C907.279 131.415 904.851 135.377 901.479 138.853C898.156 142.329 893.709 145.09 888.137 147.135C882.566 149.129 875.691 150.125 867.513 150.125H857.317V190H833.55V77.8907H869.354ZM868.127 97.3682H857.317V130.648H865.138C869.584 130.648 873.442 130.06 876.713 128.885C879.986 127.709 882.515 125.868 884.305 123.363C886.093 120.858 886.988 117.638 886.988 113.701C886.988 108.18 885.455 104.091 882.388 101.432C879.321 98.7228 874.568 97.3682 868.127 97.3682ZM978.146 102.659C979.321 102.659 980.677 102.736 982.21 102.889C983.794 102.991 985.073 103.145 986.043 103.349L984.281 125.28C983.513 125.025 982.414 124.846 980.984 124.744C979.604 124.59 978.402 124.514 977.38 124.514C974.364 124.514 971.424 124.897 968.564 125.664C965.752 126.431 963.223 127.683 960.972 129.421C958.723 131.108 956.936 133.358 955.606 136.169C954.327 138.93 953.689 142.329 953.689 146.368V190H930.305V104.269H948.016L951.467 118.686H952.616C954.303 115.772 956.398 113.113 958.903 110.711C961.459 108.257 964.346 106.314 967.566 104.883C970.836 103.4 974.364 102.659 978.146 102.659ZM1079.5 146.981C1079.5 154.138 1078.53 160.477 1076.59 165.999C1074.7 171.52 1071.91 176.197 1068.23 180.031C1064.6 183.814 1060.21 186.677 1055.04 188.62C1049.93 190.562 1044.16 191.534 1037.72 191.534C1031.69 191.534 1026.14 190.562 1021.08 188.62C1016.07 186.677 1011.7 183.814 1007.97 180.031C1004.29 176.197 1001.43 171.52 999.384 165.999C997.39 160.477 996.394 154.138 996.394 146.981C996.394 137.473 998.081 129.421 1001.45 122.826C1004.83 116.232 1009.63 111.222 1015.87 107.797C1022.1 104.372 1029.54 102.659 1038.18 102.659C1046.2 102.659 1053.31 104.372 1059.49 107.797C1065.73 111.222 1070.61 116.232 1074.14 122.826C1077.71 129.421 1079.5 137.473 1079.5 146.981ZM1020.24 146.981C1020.24 152.605 1020.85 157.333 1022.08 161.168C1023.3 165.002 1025.22 167.89 1027.83 169.833C1030.43 171.775 1033.83 172.746 1038.02 172.746C1042.16 172.746 1045.51 171.775 1048.07 169.833C1050.68 167.89 1052.57 165.002 1053.74 161.168C1054.97 157.333 1055.58 152.605 1055.58 146.981C1055.58 141.307 1054.97 136.604 1053.74 132.872C1052.57 129.089 1050.68 126.252 1048.07 124.36C1045.46 122.469 1042.06 121.523 1037.87 121.523C1031.69 121.523 1027.19 123.644 1024.38 127.888C1021.62 132.131 1020.24 138.495 1020.24 146.981ZM1146.2 121.83H1125.96V190H1102.58V121.83H1089.7V110.557L1102.58 104.269V97.9816C1102.58 90.6712 1103.81 84.9967 1106.26 80.9582C1108.76 76.8684 1112.26 74.0056 1116.76 72.3698C1121.31 70.6828 1126.68 69.8392 1132.86 69.8392C1137.41 69.8392 1141.55 70.2225 1145.28 70.9896C1149.01 71.7052 1152.06 72.5232 1154.41 73.4433L1148.43 90.6201C1146.64 90.0578 1144.7 89.5466 1142.6 89.0865C1140.51 88.6264 1138.1 88.3963 1135.39 88.3963C1132.12 88.3963 1129.72 89.3932 1128.19 91.3869C1126.71 93.3295 1125.96 95.8343 1125.96 98.9018V104.269H1146.2V121.83ZM1195.04 102.659C1202.96 102.659 1209.79 104.193 1215.51 107.26C1221.24 110.276 1225.66 114.673 1228.78 120.449C1231.89 126.226 1233.45 133.281 1233.45 141.614V152.963H1178.17C1178.43 159.557 1180.4 164.746 1184.08 168.529C1187.81 172.261 1192.97 174.127 1199.57 174.127C1205.03 174.127 1210.04 173.565 1214.59 172.44C1219.14 171.315 1223.82 169.628 1228.62 167.379V185.476C1224.38 187.572 1219.93 189.105 1215.28 190.077C1210.68 191.048 1205.09 191.534 1198.49 191.534C1189.91 191.534 1182.29 189.949 1175.64 186.779C1169.05 183.61 1163.86 178.779 1160.08 172.286C1156.35 165.794 1154.48 157.615 1154.48 147.748C1154.48 137.729 1156.17 129.396 1159.54 122.75C1162.97 116.053 1167.72 111.043 1173.8 107.72C1179.89 104.346 1186.97 102.659 1195.04 102.659ZM1195.19 119.299C1190.65 119.299 1186.86 120.756 1183.85 123.67C1180.88 126.584 1179.17 131.159 1178.71 137.396H1211.53C1211.48 133.92 1210.83 130.827 1209.61 128.117C1208.43 125.408 1206.64 123.261 1204.24 121.676C1201.89 120.092 1198.88 119.299 1195.19 119.299ZM1312.27 164.542C1312.27 170.369 1310.89 175.303 1308.13 179.341C1305.42 183.329 1301.36 186.37 1295.94 188.466C1290.52 190.511 1283.77 191.534 1275.7 191.534C1269.72 191.534 1264.58 191.15 1260.29 190.383C1256.04 189.617 1251.75 188.339 1247.41 186.549V167.225C1252.06 169.321 1257.04 171.059 1262.36 172.44C1267.72 173.769 1272.42 174.434 1276.46 174.434C1281.01 174.434 1284.26 173.769 1286.2 172.44C1288.19 171.059 1289.19 169.27 1289.19 167.072C1289.19 165.641 1288.78 164.363 1287.96 163.238C1287.2 162.062 1285.51 160.759 1282.9 159.327C1280.3 157.845 1276.21 155.928 1270.64 153.576C1265.27 151.327 1260.85 149.052 1257.37 146.751C1253.95 144.451 1251.39 141.741 1249.71 138.623C1248.07 135.454 1247.25 131.441 1247.25 126.584C1247.25 118.66 1250.32 112.704 1256.45 108.717C1262.64 104.678 1270.89 102.659 1281.22 102.659C1286.53 102.659 1291.59 103.196 1296.4 104.269C1301.25 105.343 1306.24 107.056 1311.35 109.407L1304.29 126.277C1300.05 124.437 1296.04 122.929 1292.26 121.753C1288.53 120.577 1284.72 119.989 1280.83 119.989C1277.41 119.989 1274.83 120.449 1273.09 121.37C1271.35 122.29 1270.48 123.695 1270.48 125.587C1270.48 126.967 1270.92 128.194 1271.79 129.268C1272.71 130.341 1274.44 131.543 1277 132.872C1279.61 134.15 1283.41 135.811 1288.42 137.856C1293.28 139.85 1297.5 141.946 1301.07 144.144C1304.65 146.291 1307.41 148.975 1309.35 152.196C1311.3 155.365 1312.27 159.48 1312.27 164.542ZM1390.32 164.542C1390.32 170.369 1388.94 175.303 1386.18 179.341C1383.47 183.329 1379.4 186.37 1373.99 188.466C1368.57 190.511 1361.82 191.534 1353.75 191.534C1347.77 191.534 1342.63 191.15 1338.34 190.383C1334.09 189.617 1329.8 188.339 1325.45 186.549V167.225C1330.11 169.321 1335.09 171.059 1340.4 172.44C1345.77 173.769 1350.47 174.434 1354.51 174.434C1359.06 174.434 1362.31 173.769 1364.25 172.44C1366.24 171.059 1367.24 169.27 1367.24 167.072C1367.24 165.641 1366.83 164.363 1366.01 163.238C1365.24 162.062 1363.56 160.759 1360.95 159.327C1358.35 157.845 1354.26 155.928 1348.69 153.576C1343.32 151.327 1338.9 149.052 1335.42 146.751C1332 144.451 1329.44 141.741 1327.75 138.623C1326.12 135.454 1325.3 131.441 1325.3 126.584C1325.3 118.66 1328.37 112.704 1334.5 108.717C1340.69 104.678 1348.94 102.659 1359.27 102.659C1364.58 102.659 1369.64 103.196 1374.44 104.269C1379.3 105.343 1384.29 107.056 1389.4 109.407L1382.34 126.277C1378.1 124.437 1374.09 122.929 1370.31 121.753C1366.57 120.577 1362.77 119.989 1358.88 119.989C1355.46 119.989 1352.88 120.449 1351.14 121.37C1349.4 122.29 1348.53 123.695 1348.53 125.587C1348.53 126.967 1348.97 128.194 1349.83 129.268C1350.76 130.341 1352.49 131.543 1355.05 132.872C1357.65 134.15 1361.46 135.811 1366.47 137.856C1371.33 139.85 1375.54 141.946 1379.12 144.144C1382.7 146.291 1385.46 148.975 1387.4 152.196C1389.35 155.365 1390.32 159.48 1390.32 164.542ZM1431.95 104.269V190H1408.56V104.269H1431.95ZM1420.29 70.6828C1423.77 70.6828 1426.76 71.5008 1429.26 73.1366C1431.77 74.7213 1433.02 77.712 1433.02 82.1083C1433.02 86.4537 1431.77 89.4698 1429.26 91.1567C1426.76 92.7926 1423.77 93.6108 1420.29 93.6108C1416.77 93.6108 1413.75 92.7926 1411.25 91.1567C1408.79 89.4698 1407.57 86.4537 1407.57 82.1083C1407.57 77.712 1408.79 74.7213 1411.25 73.1366C1413.75 71.5008 1416.77 70.6828 1420.29 70.6828ZM1534.45 146.981C1534.45 154.138 1533.48 160.477 1531.54 165.999C1529.65 171.52 1526.86 176.197 1523.18 180.031C1519.55 183.814 1515.16 186.677 1510 188.62C1504.88 190.562 1499.11 191.534 1492.67 191.534C1486.64 191.534 1481.09 190.562 1476.03 188.62C1471.02 186.677 1466.65 183.814 1462.92 180.031C1459.24 176.197 1456.38 171.52 1454.33 165.999C1452.34 160.477 1451.34 154.138 1451.34 146.981C1451.34 137.473 1453.03 129.421 1456.4 122.826C1459.78 116.232 1464.58 111.222 1470.82 107.797C1477.05 104.372 1484.49 102.659 1493.13 102.659C1501.15 102.659 1508.26 104.372 1514.44 107.797C1520.68 111.222 1525.56 116.232 1529.09 122.826C1532.66 129.421 1534.45 137.473 1534.45 146.981ZM1475.19 146.981C1475.19 152.605 1475.8 157.333 1477.03 161.168C1478.26 165.002 1480.17 167.89 1482.78 169.833C1485.38 171.775 1488.78 172.746 1492.97 172.746C1497.12 172.746 1500.46 171.775 1503.02 169.833C1505.62 167.89 1507.52 165.002 1508.69 161.168C1509.92 157.333 1510.53 152.605 1510.53 146.981C1510.53 141.307 1509.92 136.604 1508.69 132.872C1507.52 129.089 1505.62 126.252 1503.02 124.36C1500.41 122.469 1497.01 121.523 1492.82 121.523C1486.64 121.523 1482.14 123.644 1479.33 127.888C1476.57 132.131 1475.19 138.495 1475.19 146.981ZM1602.46 102.659C1611.61 102.659 1618.97 105.164 1624.54 110.174C1630.11 115.133 1632.9 123.108 1632.9 134.099V190H1609.51V139.927C1609.51 133.792 1608.39 129.166 1606.14 126.047C1603.94 122.929 1600.47 121.37 1595.71 121.37C1588.56 121.37 1583.67 123.798 1581.07 128.654C1578.46 133.511 1577.16 140.514 1577.16 149.665V190H1553.77V104.269H1571.64L1574.78 115.235H1576.08C1577.92 112.27 1580.2 109.867 1582.91 108.027C1585.67 106.187 1588.71 104.832 1592.03 103.963C1595.4 103.094 1598.88 102.659 1602.46 102.659ZM1692.08 102.506C1703.58 102.506 1712.4 105.011 1718.53 110.021C1724.67 115.031 1727.73 122.648 1727.73 132.872V190H1711.4L1706.88 178.344H1706.27C1703.81 181.412 1701.31 183.917 1698.75 185.859C1696.2 187.802 1693.26 189.233 1689.94 190.153C1686.61 191.074 1682.58 191.534 1677.82 191.534C1672.76 191.534 1668.21 190.562 1664.18 188.62C1660.19 186.677 1657.04 183.712 1654.75 179.725C1652.44 175.686 1651.3 170.574 1651.3 164.388C1651.3 155.289 1654.49 148.592 1660.88 144.298C1667.27 139.952 1676.85 137.549 1689.63 137.089L1704.5 136.629V132.872C1704.5 128.373 1703.33 125.076 1700.98 122.98C1698.62 120.884 1695.35 119.836 1691.16 119.836C1687.02 119.836 1682.96 120.424 1678.97 121.6C1674.99 122.775 1671 124.258 1667.01 126.047L1659.27 110.251C1663.82 107.848 1668.9 105.956 1674.53 104.576C1680.2 103.196 1686.05 102.506 1692.08 102.506ZM1704.5 150.279L1695.46 150.585C1687.89 150.79 1682.63 152.145 1679.66 154.649C1676.75 157.155 1675.29 160.452 1675.29 164.542C1675.29 168.12 1676.34 170.676 1678.44 172.21C1680.53 173.692 1683.27 174.434 1686.64 174.434C1691.65 174.434 1695.87 172.951 1699.29 169.986C1702.77 167.021 1704.5 162.803 1704.5 157.333V150.279ZM1775.27 190H1751.88V70.6828H1775.27V190ZM1859.68 164.542C1859.68 170.369 1858.3 175.303 1855.54 179.341C1852.83 183.329 1848.77 186.37 1843.35 188.466C1837.93 190.511 1831.18 191.534 1823.11 191.534C1817.13 191.534 1811.99 191.15 1807.7 190.383C1803.46 189.617 1799.16 188.339 1794.82 186.549V167.225C1799.47 169.321 1804.45 171.059 1809.77 172.44C1815.14 173.769 1819.84 174.434 1823.88 174.434C1828.42 174.434 1831.67 173.769 1833.61 172.44C1835.61 171.059 1836.6 169.27 1836.6 167.072C1836.6 165.641 1836.19 164.363 1835.38 163.238C1834.61 162.062 1832.92 160.759 1830.32 159.327C1827.71 157.845 1823.62 155.928 1818.05 153.576C1812.68 151.327 1808.26 149.052 1804.79 146.751C1801.36 144.451 1798.8 141.741 1797.12 138.623C1795.48 135.454 1794.67 131.441 1794.67 126.584C1794.67 118.66 1797.73 112.704 1803.87 108.717C1810.05 104.678 1818.31 102.659 1828.63 102.659C1833.95 102.659 1839 103.196 1843.81 104.269C1848.67 105.343 1853.65 107.056 1858.76 109.407L1851.71 126.277C1847.47 124.437 1843.45 122.929 1839.67 121.753C1835.94 120.577 1832.13 119.989 1828.25 119.989C1824.82 119.989 1822.24 120.449 1820.5 121.37C1818.76 122.29 1817.9 123.695 1817.9 125.587C1817.9 126.967 1818.33 128.194 1819.2 129.268C1820.12 130.341 1821.86 131.543 1824.41 132.872C1827.02 134.15 1830.83 135.811 1835.84 137.856C1840.69 139.85 1844.91 141.946 1848.49 144.144C1852.07 146.291 1854.82 148.975 1856.77 152.196C1858.71 155.365 1859.68 159.48 1859.68 164.542Z" fill="#335EEA"/>
<path d="M270.506 0H29.4406C13.181 0 0 13.1834 0 29.4458V270.554C0 286.817 13.181 300 29.4406 300H270.506C286.766 300 299.947 286.817 299.947 270.554V29.4458C299.947 13.1834 286.766 0 270.506 0Z" fill="#335EEA"/>
<path d="M211.253 49.0694C211.654 50.9373 211.253 52.8722 210.319 54.4068C209.317 56.0748 207.649 57.4089 205.646 57.9427L63.9292 94.4373C59.657 95.5716 54.9176 92.9695 54.0497 88.6329C53.6492 86.7648 54.0497 84.8301 54.9843 83.2956C55.2514 82.8953 55.5182 82.4949 55.7853 82.1613L56.3861 81.5609L105.783 29.3877C108.654 26.3186 113.527 26.1852 116.597 29.1209C117.665 30.1214 118.4 31.3891 118.734 32.7235C119.401 35.1921 118.734 37.9274 116.864 39.929L85.624 72.9542C85.5573 73.0209 85.624 73.0877 85.6907 73.0877L201.374 43.265C205.713 42.1975 210.385 44.7326 211.253 49.0694Z" fill="white"/>
<path d="M217.528 102.911L50.3783 145.943C46.4399 146.944 42.4348 144.609 41.3667 140.673L41.2331 140.139C40.2317 136.203 42.5682 132.199 46.5066 131.132L213.656 88.0992C217.595 87.0984 221.6 89.4336 222.668 93.3698L222.801 93.9036C223.869 97.8398 221.466 101.843 217.528 102.911Z" fill="white"/>
<path d="M187.956 134.468L78.4814 162.623C74.543 163.624 70.5379 161.288 69.4698 157.352L69.3362 156.818C68.3348 152.882 70.6713 148.879 74.6097 147.811L184.085 119.657C188.023 118.656 192.028 120.991 193.096 124.927L193.23 125.461C194.298 129.464 191.895 133.467 187.956 134.468Z" fill="white"/>
<path d="M244.764 71.887L44.3705 123.46C40.4321 124.46 36.427 122.125 35.3589 118.189L35.2255 117.655C34.2242 113.719 36.5604 109.716 40.4988 108.648L240.891 57.0756C244.831 56.0748 248.836 58.41 249.904 62.3463L250.038 62.88C251.039 66.883 248.701 70.8862 244.764 71.887Z" fill="white"/>
<path d="M88.0269 250.891C87.6264 249.022 88.0269 247.087 88.9616 245.554C89.9629 243.886 91.6318 242.551 93.6342 242.016L235.351 205.522C239.623 204.388 244.363 206.99 245.232 211.327C245.63 213.195 245.232 215.13 244.296 216.664C244.029 217.064 243.763 217.465 243.494 217.798L242.894 218.399L193.497 270.571C190.626 273.641 185.753 273.775 182.683 270.84C181.615 269.839 180.881 268.57 180.547 267.235C179.879 264.768 180.547 262.032 182.416 260.03L213.723 227.005C213.79 226.939 213.723 226.872 213.656 226.872L97.9065 256.694C93.6343 257.762 88.8948 255.228 88.0269 250.891Z" fill="white"/>
<path d="M81.7523 197.049L248.903 154.016C252.841 153.016 256.846 155.351 257.913 159.287L258.048 159.821C259.048 163.757 256.711 167.76 252.774 168.827L85.5573 211.86C81.6186 212.861 77.6135 210.526 76.5455 206.59L76.412 206.056C75.4107 202.12 77.8139 198.117 81.7523 197.049Z" fill="white"/>
<path d="M111.324 165.492L220.799 137.337C224.737 136.336 228.742 138.671 229.811 142.608L229.944 143.141C230.945 147.078 228.609 151.081 224.671 152.148L115.196 180.303C111.257 181.304 107.252 178.969 106.184 175.032L106.05 174.498C104.982 170.496 107.385 166.492 111.324 165.492Z" fill="white"/>
<path d="M54.5838 228.073L254.909 176.5C258.849 175.499 262.854 177.834 263.922 181.771L264.054 182.304C265.057 186.241 262.72 190.244 258.782 191.311L58.3886 242.885C54.4502 243.886 50.445 241.55 49.377 237.613L49.2436 237.08C48.2422 233.077 50.5784 229.074 54.5838 228.073Z" fill="white"/>
</svg>
