<svg width="230" height="246" viewBox="0 0 230 246" fill="none" xmlns="http://www.w3.org/2000/svg">
<path d="M176.291 22.0694C176.691 23.9375 176.291 25.8723 175.356 27.4068C174.355 29.0747 172.685 30.4091 170.682 30.9428L28.9405 67.4374C24.6675 68.5716 19.9272 65.9696 19.0593 61.6329C18.6587 59.7649 19.0593 57.83 19.994 56.2955C20.2611 55.8952 20.5281 55.4949 20.7952 55.1613L21.3961 54.5609L70.8021 2.38766C73.673 -0.681355 78.5468 -0.81479 81.618 2.12079C82.6863 3.12155 83.4207 4.38919 83.7545 5.72354C84.4221 8.19209 83.7545 10.9275 81.8851 12.929L50.6391 45.9543C50.5723 46.021 50.6391 46.0877 50.7059 46.0877L166.409 16.2649C170.749 15.1974 175.423 17.7327 176.291 22.0694Z" fill="#335EEA"/>
<path d="M182.567 75.9105L15.3872 118.943C11.4481 119.944 7.44218 117.609 6.37394 113.673L6.24041 113.139C5.23894 109.203 7.57571 105.2 11.5148 104.132L178.694 61.0992C182.633 60.0985 186.639 62.4336 187.708 66.3699L187.841 66.9037C188.909 70.84 186.506 74.8431 182.567 75.9105Z" fill="#335EEA"/>
<path d="M152.99 107.468L43.4952 135.623C39.5561 136.624 35.5502 134.288 34.482 130.352L34.3484 129.818C33.347 125.882 35.6837 121.879 39.6229 120.812L149.117 92.6567C153.056 91.6559 157.062 93.991 158.131 97.9274L158.264 98.4611C159.332 102.464 156.929 106.467 152.99 107.468Z" fill="#335EEA"/>
<path d="M209.807 44.8868L9.37836 96.4596C5.43923 97.4604 1.43333 95.1252 0.365092 91.1889L0.231562 90.6552C-0.769911 86.7188 1.56686 82.7158 5.50599 81.6483L205.934 30.0755C209.873 29.0747 213.879 31.4099 214.948 35.3462L215.081 35.8799C216.083 39.883 213.746 43.8861 209.807 44.8868Z" fill="#335EEA"/>
<path d="M53.0426 223.89C52.642 222.022 53.0426 220.087 53.9773 218.553C54.9788 216.885 56.6479 215.551 58.6509 215.017L200.393 178.522C204.666 177.388 209.406 179.99 210.274 184.327C210.675 186.195 210.274 188.13 209.339 189.664C209.072 190.064 208.805 190.465 208.538 190.798L207.937 191.399L158.531 243.572C155.66 246.641 150.786 246.774 147.715 243.839C146.647 242.838 145.913 241.57 145.579 240.236C144.911 237.768 145.579 235.032 147.448 233.031L178.761 200.005C178.828 199.939 178.761 199.872 178.694 199.872L62.9238 229.695C58.6509 230.762 53.9106 228.227 53.0426 223.89Z" fill="#335EEA"/>
<path d="M46.7667 170.049L213.946 127.016C217.885 126.016 221.891 128.351 222.959 132.287L223.093 132.821C224.094 136.757 221.758 140.76 217.818 141.828L50.5723 184.86C46.6332 185.861 42.6273 183.526 41.5591 179.59L41.4255 179.056C40.424 175.12 42.8276 171.117 46.7667 170.049Z" fill="#335EEA"/>
<path d="M76.3436 138.492L185.838 110.337C189.777 109.336 193.783 111.671 194.851 115.608L194.985 116.141C195.986 120.078 193.65 124.081 189.71 125.148L80.2159 153.303C76.2768 154.304 72.2709 151.969 71.2027 148.032L71.0691 147.499C70.0009 143.496 72.4044 139.492 76.3436 138.492Z" fill="#335EEA"/>
<path d="M19.5934 201.073L219.955 149.5C223.894 148.499 227.9 150.834 228.968 154.771L229.102 155.305C230.103 159.241 227.766 163.244 223.827 164.311L23.399 215.884C19.4599 216.885 15.454 214.55 14.3857 210.614L14.2522 210.08C13.2507 206.077 15.5875 202.074 19.5934 201.073Z" fill="#335EEA"/>
</svg>
