<svg width="300" height="300" viewBox="0 0 300 300" fill="none" xmlns="http://www.w3.org/2000/svg">
<rect width="300" height="300" rx="30" fill="#335EEA"/>
<path d="M211.291 49.0694C211.691 50.9375 211.291 52.8723 210.356 54.4068C209.355 56.0747 207.685 57.4091 205.682 57.9428L63.9405 94.4374C59.6675 95.5716 54.9272 92.9696 54.0593 88.6329C53.6587 86.7649 54.0593 84.83 54.994 83.2955C55.2611 82.8952 55.5281 82.4949 55.7952 82.1613L56.3961 81.5609L105.802 29.3877C108.673 26.3186 113.547 26.1852 116.618 29.1208C117.686 30.1216 118.421 31.3892 118.755 32.7235C119.422 35.1921 118.755 37.9275 116.885 39.929L85.6391 72.9543C85.5723 73.021 85.6391 73.0877 85.7059 73.0877L201.409 43.2649C205.749 42.1974 210.423 44.7327 211.291 49.0694Z" fill="white"/>
<path d="M217.567 102.911L50.3872 145.943C46.4481 146.944 42.4422 144.609 41.3739 140.673L41.2404 140.139C40.2389 136.203 42.5757 132.2 46.5148 131.132L213.694 88.0992C217.633 87.0985 221.639 89.4336 222.708 93.3699L222.841 93.9037C223.909 97.84 221.506 101.843 217.567 102.911Z" fill="white"/>
<path d="M187.99 134.468L78.4952 162.623C74.5561 163.624 70.5502 161.288 69.482 157.352L69.3484 156.818C68.347 152.882 70.6837 148.879 74.6229 147.812L184.117 119.657C188.056 118.656 192.062 120.991 193.131 124.927L193.264 125.461C194.332 129.464 191.929 133.467 187.99 134.468Z" fill="white"/>
<path d="M244.807 71.8868L44.3784 123.46C40.4392 124.46 36.4333 122.125 35.3651 118.189L35.2316 117.655C34.2301 113.719 36.5669 109.716 40.506 108.648L240.934 57.0755C244.873 56.0747 248.879 58.4099 249.948 62.3462L250.081 62.8799C251.083 66.883 248.746 70.8861 244.807 71.8868Z" fill="white"/>
<path d="M88.0426 250.89C87.642 249.022 88.0426 247.087 88.9773 245.553C89.9788 243.885 91.6479 242.551 93.6509 242.017L235.393 205.522C239.666 204.388 244.406 206.99 245.274 211.327C245.675 213.195 245.274 215.13 244.339 216.664C244.072 217.064 243.805 217.465 243.538 217.798L242.937 218.399L193.531 270.572C190.66 273.641 185.786 273.774 182.715 270.839C181.647 269.838 180.913 268.57 180.579 267.236C179.911 264.768 180.579 262.032 182.448 260.031L213.761 227.005C213.828 226.939 213.761 226.872 213.694 226.872L97.9238 256.695C93.6509 257.762 88.9106 255.227 88.0426 250.89Z" fill="white"/>
<path d="M81.7667 197.049L248.946 154.016C252.885 153.016 256.891 155.351 257.959 159.287L258.093 159.821C259.094 163.757 256.758 167.76 252.818 168.828L85.5723 211.86C81.6332 212.861 77.6273 210.526 76.5591 206.59L76.4255 206.056C75.424 202.12 77.8276 198.117 81.7667 197.049Z" fill="white"/>
<path d="M111.344 165.492L220.838 137.337C224.777 136.336 228.783 138.671 229.851 142.608L229.985 143.141C230.986 147.078 228.65 151.081 224.71 152.148L115.216 180.303C111.277 181.304 107.271 178.969 106.203 175.032L106.069 174.499C105.001 170.496 107.404 166.492 111.344 165.492Z" fill="white"/>
<path d="M54.5934 228.073L254.955 176.5C258.894 175.499 262.9 177.834 263.968 181.771L264.102 182.305C265.103 186.241 262.766 190.244 258.827 191.311L58.399 242.884C54.4599 243.885 50.454 241.55 49.3857 237.614L49.2522 237.08C48.2507 233.077 50.5875 229.074 54.5934 228.073Z" fill="white"/>
</svg>
